<svg width="173" height="64" fill="none" xmlns="http://www.w3.org/2000/svg"><g filter="url(#a)"><path d="M27.672 24.984c.17-.512.555-.939 1.152-1.28.597-.341 1.344-.512 2.24-.512.896 0 1.685.17 2.368.512 3.072-2.39 4.608-5.739 4.608-10.048 0-2.73-.81-4.715-2.432-5.952-1.621-1.28-4.139-1.92-7.552-1.92-5.29 0-9.75.832-13.376 2.496-3.627 1.621-5.44 3.627-5.44 6.016 0 .981.405 1.77 1.216 2.368.853.597 1.728.981 2.624 1.152.043.384.064.853.064 1.408 0 2.304-.384 4.01-1.152 5.12-2.005-.256-3.819-1.13-5.44-2.624-1.621-1.493-2.432-3.648-2.432-6.464 0-4.437 2.453-7.957 7.36-10.56C16.43 2.093 22.723.792 30.36.792c6.101 0 10.923 1.067 14.464 3.2 3.541 2.133 5.312 5.248 5.312 9.344 0 2.901-1.13 5.504-3.392 7.808-2.219 2.304-4.907 4.203-8.064 5.696 1.536 1.493 3.67 5.632 6.4 12.416 2.73 6.784 4.864 10.176 6.4 10.176.299 0 .704-.085 1.216-.256l1.216 3.392c-2.517 1.707-5.355 2.56-8.512 2.56-3.115 0-5.376-.683-6.784-2.048-1.365-1.365-2.539-4.181-3.52-8.448-.17-.725-.448-2.07-.832-4.032-.981-4.65-1.77-7.957-2.368-9.92h-1.088c-1.11 0-2.048-.448-2.816-1.344-.341-.256-.512-.917-.512-1.984 0-1.11.064-1.899.192-2.368zm-11.008-9.152c0-.81-.107-1.408-.32-1.792-.17-.384-.576-.939-1.216-1.664v-.768c.853-.512 2.24-.96 4.16-1.344 1.92-.427 3.605-.64 5.056-.64 2.347 0 3.904.107 4.672.32.256.427.384 1.301.384 2.624 0 1.323-1.11 6.23-3.328 14.72-2.176 8.448-3.456 14.784-3.84 19.008-3.072.725-6.528 1.088-10.368 1.088-1.024 0-1.728-.064-2.112-.192.213-2.645 1.408-7.915 3.584-15.808 2.219-7.893 3.328-13.077 3.328-15.552zM51.31 38.696c0-4 1.2-7.152 3.6-9.456 2.433-2.336 5.184-3.504 8.257-3.504 1.888 0 3.44.464 4.656 1.392 1.216.928 1.824 2.176 1.824 3.744 0 1.536-.4 2.832-1.2 3.888a7.983 7.983 0 0 1-2.832 2.448c-2.272 1.12-4.352 1.824-6.24 2.112l-1.153.144c.224 3.008 1.456 4.512 3.697 4.512.768 0 1.584-.192 2.448-.576.864-.384 1.535-.768 2.015-1.152l.72-.576 1.152 1.536c-.255.352-.767.816-1.535 1.392a21.051 21.051 0 0 1-2.16 1.44c-1.856 1.024-3.889 1.536-6.096 1.536-2.209 0-3.953-.784-5.233-2.352-1.28-1.568-1.92-3.744-1.92-6.528zm6.864-1.584c1.633-.288 2.928-.976 3.889-2.064.96-1.088 1.44-2.496 1.44-4.224 0-1.728-.513-2.592-1.536-2.592-1.216 0-2.16 1.04-2.832 3.12-.64 2.048-.96 3.968-.96 5.76zm27.801 3.6c0 2.016-.896 3.664-2.688 4.944-1.76 1.28-3.776 1.92-6.048 1.92-2.272 0-4.08-.48-5.424-1.44-1.312-.96-1.968-1.808-1.968-2.544 0-.448.56-1.168 1.68-2.16 1.12-1.024 2.064-1.648 2.832-1.872 1.6 1.184 2.912 3.056 3.936 5.616 1.184-.096 1.776-.656 1.776-1.68 0-1.472-1.296-3.552-3.888-6.24-2.592-2.72-3.888-4.88-3.888-6.48 0-1.6.72-2.832 2.16-3.696 1.44-.896 3.168-1.344 5.184-1.344 2.048 0 3.584.368 4.608 1.104 1.024.704 1.536 1.68 1.536 2.928 0 1.216-.976 2.912-2.928 5.088.224.224.512.528.864.912.352.352.816 1.04 1.392 2.064s.864 1.984.864 2.88zm-4.608-7.536c1.344-1.152 2.016-2.288 2.016-3.408s-.768-1.68-2.304-1.68c-.736 0-1.344.16-1.824.48-.48.288-.72.624-.72 1.008 0 .704.704 1.696 2.112 2.976l.72.624zm21.863-6.864c-.064.8-.336 1.728-.816 2.784a33.082 33.082 0 0 0-3.456-.192h-.864c-1.472 7.136-2.208 11.584-2.208 13.344 0 .928.192 1.392.576 1.392.416 0 1.488-.4 3.216-1.2l.864 1.584c-2.848 2.368-5.488 3.552-7.92 3.552-1.12 0-2.048-.352-2.784-1.056-.704-.704-1.056-1.632-1.056-2.784 0-1.184.128-2.512.384-3.984a186.31 186.31 0 0 1 1.152-5.376c.48-2.144.832-3.872 1.056-5.184-1.184.096-2.064.192-2.64.288-.064-.384-.096-.896-.096-1.536 0-.672.048-1.216.144-1.632h3.024a33.48 33.48 0 0 0 .384-4.896l-.048-1.488v-.144c2.496-.864 4.848-1.296 7.056-1.296.128.64.192 1.44.192 2.4s-.272 2.768-.816 5.424h4.656zm5.993 21.264c-2.208 0-3.936-.768-5.184-2.304-1.248-1.568-1.872-3.744-1.872-6.528 0-3.552.944-6.608 2.832-9.168 1.92-2.56 4.56-3.84 7.92-3.84l1.728.096a3.837 3.837 0 0 1 1.824-.432c2.528 0 3.792 2.384 3.792 7.152a24.75 24.75 0 0 0 3.984-.528l.768-.192.287 1.872c-1.055.448-2.479.848-4.271 1.2l-.96.192c-.608 3.36-1.84 6.288-3.696 8.784-1.856 2.464-4.24 3.696-7.152 3.696zm2.592-4.128c1.344 0 2.544-.864 3.6-2.592a16.944 16.944 0 0 0 2.256-5.472c-3.424 0-5.136-1.28-5.136-3.84 0-1.024.208-1.984.624-2.88l.239-.48a1.061 1.061 0 0 0-.479-.096c-.192 0-.336.032-.432.096-.8.512-1.552 1.712-2.256 3.6-.704 1.888-1.056 4.048-1.056 6.48 0 3.456.88 5.184 2.64 5.184zm15.752-28.128c0-1.056-.096-1.808-.288-2.256 2.496-.864 4.848-1.296 7.056-1.296.288.288.432 1.024.432 2.208 0 2.656-.88 7.744-2.64 15.264 2.848-2.336 5.664-3.504 8.448-3.504 1.248 0 2.304.384 3.168 1.152.864.768 1.296 1.888 1.296 3.36 0 2.752-2.256 4.752-6.768 6 1.056 3.328 1.984 5.584 2.784 6.768.352.512.608.768.768.768.352 0 1.088-.272 2.208-.816l.528-.24.768 1.632c-.768.704-1.84 1.424-3.216 2.16-1.344.704-2.576 1.056-3.696 1.056-2.496 0-4.24-2.272-5.232-6.816-.448-1.952-.72-3.776-.816-5.472 2.048-.48 3.568-1.056 4.56-1.728 1.024-.704 1.536-1.584 1.536-2.64 0-1.088-.544-1.632-1.632-1.632-1.088 0-2.912 1.088-5.472 3.264-1.6 6.752-2.4 11.376-2.4 13.872-1.76.512-4.048.768-6.864.768a24.857 24.857 0 0 1-.048-1.44c0-1.376.912-6.08 2.736-14.112 1.856-8.032 2.784-13.472 2.784-16.32zm33.255 11.808c.064-.064.24-.48.528-1.248 1.504 0 3.52.448 6.048 1.344-.8 2.656-1.44 5.44-1.92 8.352-.48 2.88-.72 4.944-.72 6.192 0 1.216.128 1.824.384 1.824.192 0 .896-.304 2.112-.912l.576-.288.864 1.68c-.288.256-.672.576-1.152.96-.448.384-1.312.912-2.592 1.584-1.28.64-2.432.96-3.456.96-1.984 0-3.136-.896-3.456-2.688-2.048 1.792-3.904 2.688-5.568 2.688-1.632 0-3.024-.64-4.176-1.92-1.12-1.28-1.68-3.296-1.68-6.048 0-4.288.88-7.664 2.64-10.128 1.76-2.496 3.888-3.744 6.384-3.744 1.792 0 3.52.464 5.184 1.392zm-5.472 16.368c.768 0 1.632-.304 2.592-.912a58.345 58.345 0 0 1 2.256-13.392c-.96-.416-1.776-.624-2.448-.624-1.152 0-2.144 1.136-2.976 3.408-.8 2.24-1.2 4.72-1.2 7.44 0 2.72.592 4.08 1.776 4.08z" fill="#FF9F1C"/></g><defs><filter id="a" x=".119" y=".792" width="172.574" height="62.336" filterUnits="userSpaceOnUse" color-interpolation-filters="sRGB"><feFlood flood-opacity="0" result="BackgroundImageFix"/><feColorMatrix in="SourceAlpha" values="0 0 0 0 0 0 0 0 0 0 0 0 0 0 0 0 0 0 127 0" result="hardAlpha"/><feOffset dy="4"/><feGaussianBlur stdDeviation="2"/><feComposite in2="hardAlpha" operator="out"/><feColorMatrix values="0 0 0 0 1 0 0 0 0 0.623529 0 0 0 0 0.109804 0 0 0 0.25 0"/><feBlend in2="BackgroundImageFix" result="effect1_dropShadow_1247_9"/><feBlend in="SourceGraphic" in2="effect1_dropShadow_1247_9" result="shape"/></filter></defs></svg>