<svg width="173" height="64" viewBox="0 0 173 64" fill="none" xmlns="http://www.w3.org/2000/svg">
<g filter="url(#filter0_d_1247_9)">
<path d="M27.672 24.984C27.8427 24.472 28.2267 24.0453 28.824 23.704C29.4213 23.3627 30.168 23.192 31.064 23.192C31.96 23.192 32.7493 23.3627 33.432 23.704C36.504 21.3147 38.04 17.9653 38.04 13.656C38.04 10.9253 37.2293 8.94133 35.608 7.704C33.9867 6.424 31.4693 5.784 28.056 5.784C22.7653 5.784 18.3067 6.616 14.68 8.28C11.0533 9.90133 9.24 11.9067 9.24 14.296C9.24 15.2773 9.64533 16.0667 10.456 16.664C11.3093 17.2613 12.184 17.6453 13.08 17.816C13.1227 18.2 13.144 18.6693 13.144 19.224C13.144 21.528 12.76 23.2347 11.992 24.344C9.98667 24.088 8.17333 23.2133 6.552 21.72C4.93067 20.2267 4.12 18.072 4.12 15.256C4.12 10.8187 6.57333 7.29867 11.48 4.696C16.4293 2.09333 22.7227 0.791996 30.36 0.791996C36.4613 0.791996 41.2827 1.85866 44.824 3.992C48.3653 6.12533 50.136 9.24 50.136 13.336C50.136 16.2373 49.0053 18.84 46.744 21.144C44.5253 23.448 41.8373 25.3467 38.68 26.84C40.216 28.3333 42.3493 32.472 45.08 39.256C47.8107 46.04 49.944 49.432 51.48 49.432C51.7787 49.432 52.184 49.3467 52.696 49.176L53.912 52.568C51.3947 54.2747 48.5573 55.128 45.4 55.128C42.2853 55.128 40.024 54.4453 38.616 53.08C37.2507 51.7147 36.0773 48.8987 35.096 44.632C34.9253 43.9067 34.648 42.5627 34.264 40.6C33.2827 35.9493 32.4933 32.6427 31.896 30.68H30.808C29.6987 30.68 28.76 30.232 27.992 29.336C27.6507 29.08 27.48 28.4187 27.48 27.352C27.48 26.2427 27.544 25.4533 27.672 24.984ZM16.664 15.832C16.664 15.0213 16.5573 14.424 16.344 14.04C16.1733 13.656 15.768 13.1013 15.128 12.376V11.608C15.9813 11.096 17.368 10.648 19.288 10.264C21.208 9.83733 22.8933 9.624 24.344 9.624C26.6907 9.624 28.248 9.73066 29.016 9.944C29.272 10.3707 29.4 11.2453 29.4 12.568C29.4 13.8907 28.2907 18.7973 26.072 27.288C23.896 35.736 22.616 42.072 22.232 46.296C19.16 47.0213 15.704 47.384 11.864 47.384C10.84 47.384 10.136 47.32 9.752 47.192C9.96533 44.5467 11.16 39.2773 13.336 31.384C15.5547 23.4907 16.664 18.3067 16.664 15.832ZM51.3105 38.696C51.3105 34.696 52.5105 31.544 54.9105 29.24C57.3425 26.904 60.0945 25.736 63.1665 25.736C65.0545 25.736 66.6065 26.2 67.8225 27.128C69.0385 28.056 69.6465 29.304 69.6465 30.872C69.6465 32.408 69.2465 33.704 68.4465 34.76C67.6785 35.816 66.7345 36.632 65.6145 37.208C63.3425 38.328 61.2625 39.032 59.3745 39.32L58.2225 39.464C58.4465 42.472 59.6785 43.976 61.9185 43.976C62.6865 43.976 63.5025 43.784 64.3665 43.4C65.2305 43.016 65.9025 42.632 66.3825 42.248L67.1025 41.672L68.2545 43.208C67.9985 43.56 67.4865 44.024 66.7185 44.6C65.9505 45.176 65.2305 45.656 64.5585 46.04C62.7025 47.064 60.6705 47.576 58.4625 47.576C56.2545 47.576 54.5105 46.792 53.2305 45.224C51.9505 43.656 51.3105 41.48 51.3105 38.696ZM58.1745 37.112C59.8065 36.824 61.1025 36.136 62.0625 35.048C63.0225 33.96 63.5025 32.552 63.5025 30.824C63.5025 29.096 62.9905 28.232 61.9665 28.232C60.7505 28.232 59.8065 29.272 59.1345 31.352C58.4945 33.4 58.1745 35.32 58.1745 37.112ZM85.9751 40.712C85.9751 42.728 85.0791 44.376 83.2871 45.656C81.5271 46.936 79.5111 47.576 77.2391 47.576C74.9671 47.576 73.1591 47.096 71.8151 46.136C70.5031 45.176 69.8471 44.328 69.8471 43.592C69.8471 43.144 70.4071 42.424 71.5271 41.432C72.6471 40.408 73.5911 39.784 74.3591 39.56C75.9591 40.744 77.2711 42.616 78.2951 45.176C79.4791 45.08 80.0711 44.52 80.0711 43.496C80.0711 42.024 78.7751 39.944 76.1831 37.256C73.5911 34.536 72.2951 32.376 72.2951 30.776C72.2951 29.176 73.0151 27.944 74.4551 27.08C75.8951 26.184 77.6231 25.736 79.6391 25.736C81.6871 25.736 83.2231 26.104 84.2471 26.84C85.2711 27.544 85.7831 28.52 85.7831 29.768C85.7831 30.984 84.8071 32.68 82.8551 34.856C83.0791 35.08 83.3671 35.384 83.7191 35.768C84.0711 36.12 84.5351 36.808 85.1111 37.832C85.6871 38.856 85.9751 39.816 85.9751 40.712ZM81.3671 33.176C82.7111 32.024 83.3831 30.888 83.3831 29.768C83.3831 28.648 82.6151 28.088 81.0791 28.088C80.3431 28.088 79.7351 28.248 79.2551 28.568C78.7751 28.856 78.5351 29.192 78.5351 29.576C78.5351 30.28 79.2391 31.272 80.6471 32.552L81.3671 33.176ZM103.23 26.312C103.166 27.112 102.894 28.04 102.414 29.096C101.198 28.968 100.046 28.904 98.9576 28.904H98.0936C96.6216 36.04 95.8856 40.488 95.8856 42.248C95.8856 43.176 96.0776 43.64 96.4616 43.64C96.8776 43.64 97.9496 43.24 99.6776 42.44L100.542 44.024C97.6936 46.392 95.0536 47.576 92.6216 47.576C91.5016 47.576 90.5736 47.224 89.8376 46.52C89.1336 45.816 88.7816 44.888 88.7816 43.736C88.7816 42.552 88.9096 41.224 89.1656 39.752C89.4536 38.28 89.8376 36.488 90.3176 34.376C90.7976 32.232 91.1496 30.504 91.3736 29.192C90.1896 29.288 89.3096 29.384 88.7336 29.48C88.6696 29.096 88.6376 28.584 88.6376 27.944C88.6376 27.272 88.6856 26.728 88.7816 26.312H91.8056C92.0616 24.584 92.1896 22.952 92.1896 21.416L92.1416 19.928V19.784C94.6376 18.92 96.9896 18.488 99.1976 18.488C99.3256 19.128 99.3896 19.928 99.3896 20.888C99.3896 21.848 99.1176 23.656 98.5736 26.312H103.23ZM109.223 47.576C107.015 47.576 105.287 46.808 104.039 45.272C102.791 43.704 102.167 41.528 102.167 38.744C102.167 35.192 103.111 32.136 104.999 29.576C106.919 27.016 109.559 25.736 112.919 25.736L114.647 25.832C115.191 25.544 115.799 25.4 116.471 25.4C118.999 25.4 120.263 27.784 120.263 32.552C121.575 32.488 122.903 32.312 124.247 32.024L125.015 31.832L125.302 33.704C124.247 34.152 122.823 34.552 121.031 34.904L120.071 35.096C119.463 38.456 118.231 41.384 116.375 43.88C114.519 46.344 112.135 47.576 109.223 47.576ZM111.815 43.448C113.159 43.448 114.359 42.584 115.415 40.856C116.503 39.128 117.255 37.304 117.671 35.384C114.247 35.384 112.535 34.104 112.535 31.544C112.535 30.52 112.743 29.56 113.159 28.664L113.398 28.184C113.271 28.12 113.111 28.088 112.919 28.088C112.727 28.088 112.583 28.12 112.487 28.184C111.687 28.696 110.935 29.896 110.231 31.784C109.527 33.672 109.175 35.832 109.175 38.264C109.175 41.72 110.055 43.448 111.815 43.448ZM127.567 15.32C127.567 14.264 127.471 13.512 127.279 13.064C129.775 12.2 132.127 11.768 134.335 11.768C134.623 12.056 134.767 12.792 134.767 13.976C134.767 16.632 133.887 21.72 132.127 29.24C134.975 26.904 137.791 25.736 140.575 25.736C141.823 25.736 142.879 26.12 143.743 26.888C144.607 27.656 145.039 28.776 145.039 30.248C145.039 33 142.783 35 138.271 36.248C139.327 39.576 140.255 41.832 141.055 43.016C141.407 43.528 141.663 43.784 141.823 43.784C142.175 43.784 142.911 43.512 144.031 42.968L144.559 42.728L145.327 44.36C144.559 45.064 143.487 45.784 142.111 46.52C140.767 47.224 139.535 47.576 138.415 47.576C135.919 47.576 134.175 45.304 133.183 40.76C132.735 38.808 132.463 36.984 132.367 35.288C134.415 34.808 135.935 34.232 136.927 33.56C137.951 32.856 138.463 31.976 138.463 30.92C138.463 29.832 137.919 29.288 136.831 29.288C135.743 29.288 133.919 30.376 131.359 32.552C129.759 39.304 128.959 43.928 128.959 46.424C127.199 46.936 124.911 47.192 122.095 47.192C122.063 46.648 122.047 46.168 122.047 45.752C122.047 44.376 122.959 39.672 124.783 31.64C126.639 23.608 127.567 18.168 127.567 15.32ZM160.822 27.128C160.886 27.064 161.062 26.648 161.35 25.88C162.854 25.88 164.87 26.328 167.398 27.224C166.598 29.88 165.958 32.664 165.478 35.576C164.998 38.456 164.758 40.52 164.758 41.768C164.758 42.984 164.886 43.592 165.142 43.592C165.334 43.592 166.038 43.288 167.254 42.68L167.83 42.392L168.694 44.072C168.406 44.328 168.022 44.648 167.542 45.032C167.094 45.416 166.23 45.944 164.95 46.616C163.67 47.256 162.518 47.576 161.494 47.576C159.51 47.576 158.358 46.68 158.038 44.888C155.99 46.68 154.134 47.576 152.47 47.576C150.838 47.576 149.446 46.936 148.294 45.656C147.174 44.376 146.614 42.36 146.614 39.608C146.614 35.32 147.494 31.944 149.254 29.48C151.014 26.984 153.142 25.736 155.638 25.736C157.43 25.736 159.158 26.2 160.822 27.128ZM155.35 43.496C156.118 43.496 156.982 43.192 157.942 42.584C158.166 38.072 158.918 33.608 160.198 29.192C159.238 28.776 158.422 28.568 157.75 28.568C156.598 28.568 155.606 29.704 154.774 31.976C153.974 34.216 153.574 36.696 153.574 39.416C153.574 42.136 154.166 43.496 155.35 43.496Z" fill="#FF9F1C"/>
</g>
<defs>
<filter id="filter0_d_1247_9" x="0.119141" y="0.791992" width="172.574" height="62.3359" filterUnits="userSpaceOnUse" color-interpolation-filters="sRGB">
<feFlood flood-opacity="0" result="BackgroundImageFix"/>
<feColorMatrix in="SourceAlpha" type="matrix" values="0 0 0 0 0 0 0 0 0 0 0 0 0 0 0 0 0 0 127 0" result="hardAlpha"/>
<feOffset dy="4"/>
<feGaussianBlur stdDeviation="2"/>
<feComposite in2="hardAlpha" operator="out"/>
<feColorMatrix type="matrix" values="0 0 0 0 1 0 0 0 0 0.623529 0 0 0 0 0.109804 0 0 0 0.25 0"/>
<feBlend mode="normal" in2="BackgroundImageFix" result="effect1_dropShadow_1247_9"/>
<feBlend mode="normal" in="SourceGraphic" in2="effect1_dropShadow_1247_9" result="shape"/>
</filter>
</defs>
</svg>
